<?xml version="1.0" standalone="no"?>
<!DOCTYPE svg PUBLIC "-//W3C//DTD SVG 20010904//EN"
 "http://www.w3.org/TR/2001/REC-SVG-20010904/DTD/svg10.dtd">
<svg version="1.0" xmlns="http://www.w3.org/2000/svg"
 width="820.000000pt" height="1280.000000pt" viewBox="0 0 820.000000 1280.000000"
 preserveAspectRatio="xMidYMid meet">
<metadata>
Created by potrace 1.15, written by Peter Selinger 2001-2017
</metadata>
<g transform="translate(0.000000,1280.000000) scale(0.100000,-0.100000)"
fill="#cddc39" stroke="none">
<path d="M6030 12778 c-99 -35 -157 -73 -246 -162 -130 -130 -233 -309 -299
-521 -30 -96 -1465 -5600 -1465 -5622 0 -4 -5 -1 -9 7 -5 8 -298 944 -651
2080 -483 1552 -653 2087 -686 2155 -73 151 -199 279 -306 314 -18 6 -370 105
-783 222 -816 230 -825 231 -945 196 -170 -50 -340 -220 -460 -457 -179 -356
-230 -842 -126 -1201 14 -46 644 -2075 1401 -4509 943 -3033 1388 -4452 1416
-4509 76 -161 169 -264 284 -317 84 -38 1542 -445 1616 -451 131 -11 259 48
390 177 129 126 223 285 293 491 44 129 2699 10338 2723 10469 24 132 24 449
0 576 -59 320 -203 554 -392 636 -22 10 -377 113 -790 229 -837 236 -848 238
-965 197z"/>
</g>
</svg>
