<?xml version="1.0" encoding="UTF-8" standalone="no"?>
<!DOCTYPE svg PUBLIC "-//W3C//DTD SVG 1.1//EN" "http://www.w3.org/Graphics/SVG/1.1/DTD/svg11.dtd">
<svg width="100%" height="100%" viewBox="0 0 1863 1931" version="1.1" xmlns="http://www.w3.org/2000/svg" xmlns:xlink="http://www.w3.org/1999/xlink" xml:space="preserve" xmlns:serif="http://www.serif.com/" style="fill-rule:evenodd;clip-rule:evenodd;stroke-linejoin:round;stroke-miterlimit:2;">
    <g transform="matrix(1,0,0,1,-2111.98,-2227.95)">
        <g id="小菜的logo-3" transform="matrix(2.17873,0,0,2.25908,4390.56,2827.64)">
            <rect x="-1045.83" y="-265.456" width="854.764" height="854.764" style="fill:none;"/>
            <clipPath id="_clip1">
                <rect x="-1045.83" y="-265.456" width="854.764" height="854.764"/>
            </clipPath>
            <g clip-path="url(#_clip1)">
                <g transform="matrix(0.385862,0,0,0.372139,-1008.54,-1146.41)">
                    <path d="M1229.3,2754.52C1176.77,2733.13 1119.33,2721.34 1059.15,2721.34C809.74,2721.34 607.249,2923.84 607.249,3173.25C607.249,3226.92 609.09,3257.92 626.284,3305.67C680.811,3296.87 762.811,3187.74 816.985,3185.03C876.64,3182.06 917.711,3232.18 968.272,3342.36C991.487,3392.95 1025.74,3474.12 1064.98,3491.86C1166.3,3537.64 1185.1,3353.62 1290.06,3384.32C1329.18,3395.77 1375.26,3418.91 1418.53,3447.13C1419.36,3446.05 1420.18,3444.96 1421,3443.87L1421,3448.74C1480.05,3487.62 1485.54,3504.87 1630.98,3509.85C1665.28,3511.02 1573.12,3622.93 1558.95,3638.22C1404.63,3804.74 1188.42,3858.13 1113.02,3858.13C1037.61,3858.13 688.985,3877.3 470.82,3513.31C461.636,3497.99 492.079,3546.51 530.385,3519.09C568.691,3491.66 553.103,3429.76 598.038,3512.58C618.4,3550.11 584.388,3623.74 612.425,3603.21C621.956,3596.23 761.174,3589.83 737.957,3496.89C716.758,3412.02 815.845,3392.19 810.336,3324.63C807.999,3295.97 818.213,3216.18 806.704,3225.04C720.997,3291.03 625.298,3351.66 613.508,3343.83C547.287,3299.79 459.461,3463.56 411.17,3348.52C408.08,3341.16 406.25,3334.7 405.533,3329.05C393.638,3279.05 387.341,3226.88 387.341,3173.25C387.341,2802.47 688.37,2501.44 1059.15,2501.44C1290.04,2501.44 1493.88,2618.16 1614.81,2795.74L1613.63,2795.74C1767.53,3023.39 1383.37,3148.09 1117.84,3177.83C1074.72,3182.66 971.517,3181.35 951.952,3185.97C1109.22,3130.97 1661.43,2951.34 1229.3,2754.52ZM1242.47,3411.63C1242.47,3411.63 1172.4,3492.06 1101.12,3528.69C1029.45,3565.52 1069.28,3589.42 1069.28,3589.42C1069.28,3589.42 1032.74,3643.54 1110.37,3620.38C1151.99,3607.95 1198.71,3654.19 1215.62,3641.68C1232.53,3629.17 1240.98,3536.47 1240.98,3536.47C1240.98,3536.47 1297.68,3428.52 1242.47,3411.63Z" style="fill:rgb(112,180,249);"/>
                </g>
<!--                <g transform="matrix(1.29219,0,0,1.73079,-3001.47,-1001.57)">-->
<!--                    <text x="1663.16px" y="822.857px" style="font-family:'Futura-Bold', 'Futura', sans-serif;font-weight:700;font-size:57.515px;">E V E R E S T</text>-->
<!--                </g>-->
<!--                <g transform="matrix(0.383506,0,0,0.271547,-855.936,-633.4)">-->
<!--                    <text x="14.113px" y="4023.5px" style="font-family:'ArialMT', 'Arial', sans-serif;font-size:60px;">Cross-border e-commerce borrow-sell platform</text>-->
<!--                </g>-->
                <g transform="matrix(1.63052,0,0,0.5875,-1209.23,-462.352)">
                    <path d="M738.106,1405.55L655.226,1405.55C644.206,1405.55 634.026,1390.63 628.535,1366.42C623.044,1342.21 623.079,1312.41 628.627,1288.28C655.207,1172.7 695.573,997.167 722.024,882.147C727.539,858.164 737.668,843.415 748.623,843.415C759.578,843.415 769.707,858.164 775.222,882.147L816.846,1063.15L747.694,1363.86L747.694,1363.86C742.245,1387.57 732.962,1402.17 722.98,1405.51L738.116,1405.51L738.106,1405.55Z" style="fill:rgb(114,184,254);"/>
                </g>
            </g>
        </g>
    </g>
</svg>
