<?xml version="1.0" encoding="UTF-8" standalone="no"?>
<!DOCTYPE svg PUBLIC "-//W3C//DTD SVG 1.1//EN" "http://www.w3.org/Graphics/SVG/1.1/DTD/svg11.dtd">
<svg width="100%" height="100%" viewBox="0 0 1363 748" version="1.1" xmlns="http://www.w3.org/2000/svg" xmlns:xlink="http://www.w3.org/1999/xlink" xml:space="preserve" xmlns:serif="http://www.serif.com/" style="fill-rule:evenodd;clip-rule:evenodd;stroke-linecap:round;stroke-linejoin:round;stroke-miterlimit:1.5;">
    <g transform="matrix(1,0,0,1,-2374.07,-555.18)">
        <g transform="matrix(2.17873,0,0,2.25908,4399.91,599.687)">
<!--            <g transform="matrix(1.63052,0,0,0.5875,-1903.65,-514.986)">-->
<!--                <path d="M738.106,1405.55L655.226,1405.55C644.206,1405.55 634.026,1390.63 628.535,1366.42C623.044,1342.21 623.079,1312.41 628.627,1288.28C655.207,1172.7 695.573,997.167 722.024,882.147C727.539,858.164 737.668,843.415 748.623,843.415C759.578,843.415 769.707,858.164 775.222,882.147L816.846,1063.15L747.694,1363.86L747.694,1363.86C742.245,1387.57 732.962,1402.17 722.98,1405.51L738.116,1405.51L738.106,1405.55Z" style="fill:white;fill-opacity:0.65;stroke:white;stroke-width:0.37px;"/>-->
<!--            </g>-->
<!--            <g transform="matrix(0.64882,0,0,0.592341,-1267.76,-521.611)">-->
<!--                <path d="M1072.72,1065.64L1118.9,986.379C1132.76,962.593 1158.22,947.964 1185.75,947.964C1213.28,947.964 1238.73,962.593 1252.59,986.379C1304.64,1075.71 1376.6,1199.2 1428.88,1288.94C1442.83,1312.87 1442.92,1342.42 1429.12,1366.43C1415.32,1390.45 1389.74,1405.25 1362.04,1405.25C1179.19,1405.25 874.838,1405.25 874.838,1405.25L1135.98,1405.25C1163.67,1405.25 1189.26,1390.45 1203.06,1366.43C1216.85,1342.42 1216.77,1312.87 1202.82,1288.94L1072.72,1065.64Z" style="fill:white;fill-opacity:0.65;stroke:rgb(142,142,142);stroke-width:0.73px;"/>-->
<!--            </g>-->
<!--            <g transform="matrix(0.64882,0,0,0.592341,-1267.76,-521.611)">-->
<!--                <path d="M1072.72,1065.64L1202.82,1288.94C1216.77,1312.87 1216.85,1342.42 1203.06,1366.43C1189.26,1390.45 1163.67,1405.25 1135.98,1405.25L874.838,1405.25L874.864,1405.2L836.826,1405.2C861.912,1401.89 885.24,1387.41 898.933,1363.89L898.934,1363.89L1072.72,1065.64Z" style="fill:white;fill-opacity:0.94;"/>-->
<!--            </g>-->
<!--            <g transform="matrix(0.431783,0,0,0.416427,-1022.09,-179.351)">-->
<!--                <path d="M564.365,652.627L690.271,448.079C709.863,416.25 745.848,396.674 784.763,396.674C823.679,396.674 859.663,416.25 879.255,448.079L1027.12,688.309L1009.48,716.975C982.974,707.431 956.797,706.917 941.615,724.017C915.477,753.458 809.845,735.088 731.058,661.051C684.046,616.873 613.57,632.68 564.365,652.627Z" style="fill:url(#_Linear1);"/>-->
<!--            </g>-->
            <g transform="matrix(2.30074,0,0,2.39309,-4758.55,-1771.28)">
                <path d="M1665.17,784.494L1687.78,784.494L1687.78,794.559L1677.42,794.559L1677.42,798.815L1687.61,798.815L1687.61,808.363L1677.42,808.363L1677.42,812.792L1688.18,812.792L1688.18,822.857L1665.17,822.857L1665.17,784.494Z" style="fill:url(#_Linear2);fill-rule:nonzero;"/>
                <path d="M1713.37,784.494L1719.87,801.173L1726.43,784.494L1739.83,784.494L1724.87,822.857L1714.92,822.857L1699.97,784.494L1713.37,784.494Z" style="fill:url(#_Linear3);fill-rule:nonzero;"/>
                <path d="M1752.19,784.494L1774.8,784.494L1774.8,794.559L1764.44,794.559L1764.44,798.815L1774.62,798.815L1774.62,808.363L1764.44,808.363L1764.44,812.792L1775.2,812.792L1775.2,822.857L1752.19,822.857L1752.19,784.494Z" style="fill:url(#_Linear4);fill-rule:nonzero;"/>
                <path d="M1790.15,784.494L1803.38,784.494C1805.84,784.494 1808.11,784.82 1810.2,785.472C1812.29,786.124 1814.1,787.082 1815.63,788.348C1817.17,789.613 1818.37,791.175 1819.23,793.035C1820.09,794.895 1820.52,797.032 1820.52,799.448C1820.52,801.365 1820.25,802.995 1819.72,804.337C1819.18,805.679 1818.59,806.791 1817.93,807.673C1817.17,808.67 1816.3,809.513 1815.35,810.203L1822.54,822.857L1808.16,822.857L1802.4,813.137L1802.4,822.857L1790.15,822.857L1790.15,784.494ZM1802.4,803.359L1803.04,803.359C1804.49,803.359 1805.73,803.033 1806.75,802.381C1807.76,801.729 1808.27,800.637 1808.27,799.103C1808.27,797.569 1807.76,796.476 1806.75,795.825C1805.73,795.173 1804.49,794.847 1803.04,794.847L1802.4,794.847L1802.4,803.359Z" style="fill:url(#_Linear5);fill-rule:nonzero;"/>
<!--                <path d="M1678.47,811.82L1688.18,811.82C1688.76,811.82 1689.23,812.255 1689.23,812.792L1689.23,822.857C1689.23,823.393 1688.76,823.828 1688.18,823.828L1665.17,823.828C1664.6,823.828 1664.13,823.393 1664.13,822.857L1664.13,784.494C1664.13,783.958 1664.6,783.523 1665.17,783.523L1687.78,783.523C1688.36,783.523 1688.82,783.958 1688.82,784.494L1688.82,794.559C1688.82,795.096 1688.36,795.53 1687.78,795.53L1678.47,795.53L1678.47,797.844L1687.61,797.844C1688.18,797.844 1688.65,798.279 1688.65,798.815L1688.65,808.363C1688.65,808.899 1688.18,809.334 1687.61,809.334L1678.47,809.334L1678.47,811.82ZM1686.73,793.588L1686.73,785.465L1666.22,785.465L1666.22,821.886L1687.13,821.886L1687.13,813.763L1677.42,813.763C1676.85,813.763 1676.38,813.328 1676.38,812.792L1676.38,808.363C1676.38,807.827 1676.85,807.392 1677.42,807.392L1686.56,807.392L1686.56,799.786L1677.42,799.786C1676.85,799.786 1676.38,799.352 1676.38,798.815L1676.38,794.559C1676.38,794.023 1676.85,793.588 1677.42,793.588L1686.73,793.588Z" style="fill:white;"/>-->
<!--                <path d="M1719.88,798.327L1725.44,784.162C1725.59,783.778 1725.99,783.523 1726.43,783.523L1739.83,783.523C1740.17,783.523 1740.49,783.677 1740.69,783.936C1740.88,784.195 1740.93,784.527 1740.81,784.824L1725.86,823.187C1725.71,823.571 1725.32,823.828 1724.87,823.828L1714.92,823.828C1714.48,823.828 1714.09,823.571 1713.94,823.187L1698.99,784.824C1698.87,784.527 1698.92,784.195 1699.11,783.936C1699.31,783.677 1699.63,783.523 1699.97,783.523L1713.37,783.523C1713.81,783.523 1714.21,783.779 1714.36,784.164L1719.88,798.327ZM1712.64,785.465L1701.46,785.465L1715.66,821.886L1724.14,821.886L1738.34,785.465L1727.16,785.465L1720.86,801.506C1720.7,801.89 1720.31,802.145 1719.87,802.145C1719.43,802.144 1719.04,801.888 1718.89,801.503L1712.64,785.465Z" style="fill:white;"/>-->
<!--                <path d="M1765.49,811.82L1775.2,811.82C1775.78,811.82 1776.25,812.255 1776.25,812.792L1776.25,822.857C1776.25,823.393 1775.78,823.828 1775.2,823.828L1752.19,823.828C1751.62,823.828 1751.15,823.393 1751.15,822.857L1751.15,784.494C1751.15,783.958 1751.62,783.523 1752.19,783.523L1774.8,783.523C1775.38,783.523 1775.85,783.958 1775.85,784.494L1775.85,794.559C1775.85,795.096 1775.38,795.53 1774.8,795.53L1765.49,795.53L1765.49,797.844L1774.62,797.844C1775.2,797.844 1775.67,798.279 1775.67,798.815L1775.67,808.363C1775.67,808.899 1775.2,809.334 1774.62,809.334L1765.49,809.334L1765.49,811.82ZM1773.75,793.588L1773.75,785.465L1753.24,785.465L1753.24,821.886L1774.15,821.886L1774.15,813.763L1764.44,813.763C1763.87,813.763 1763.4,813.328 1763.4,812.792L1763.4,808.363C1763.4,807.827 1763.87,807.392 1764.44,807.392L1773.58,807.392L1773.58,799.786L1764.44,799.786C1763.87,799.786 1763.4,799.352 1763.4,798.815L1763.4,794.559C1763.4,794.023 1763.87,793.588 1764.44,793.588L1773.75,793.588Z" style="fill:white;"/>-->
<!--                <path d="M1803.45,816.926L1803.45,822.857C1803.45,823.393 1802.98,823.828 1802.4,823.828L1790.15,823.828C1789.58,823.828 1789.11,823.393 1789.11,822.857L1789.11,784.494C1789.11,783.958 1789.58,783.523 1790.15,783.523L1803.38,783.523C1805.96,783.523 1808.34,783.868 1810.53,784.551C1812.76,785.247 1814.69,786.272 1816.33,787.622C1817.98,788.98 1819.26,790.655 1820.19,792.651C1821.1,794.623 1821.57,796.887 1821.57,799.448C1821.57,801.498 1821.27,803.239 1820.7,804.675C1820.13,806.102 1819.49,807.283 1818.79,808.237C1818.14,809.073 1817.44,809.809 1816.67,810.445L1823.46,822.404C1823.63,822.705 1823.62,823.067 1823.43,823.358C1823.24,823.65 1822.9,823.828 1822.54,823.828L1808.16,823.828C1807.77,823.828 1807.42,823.635 1807.24,823.324L1803.45,816.926ZM1791.2,785.465L1791.2,821.886L1801.36,821.886L1801.36,813.137C1801.36,812.693 1801.68,812.306 1802.14,812.196C1802.61,812.086 1803.09,812.281 1803.32,812.67L1808.78,821.886L1820.8,821.886L1814.42,810.656C1814.18,810.239 1814.3,809.725 1814.7,809.436C1815.58,808.802 1816.38,808.025 1817.07,807.124C1817.68,806.298 1818.23,805.255 1818.74,803.999C1819.23,802.75 1819.48,801.232 1819.48,799.448C1819.48,797.177 1819.08,795.167 1818.27,793.419C1817.47,791.695 1816.36,790.246 1814.94,789.073C1813.51,787.892 1811.81,787.001 1809.86,786.392C1807.88,785.772 1805.72,785.465 1803.38,785.465L1791.2,785.465ZM1801.36,803.359C1801.36,803.895 1801.83,804.33 1802.4,804.33L1803.04,804.33C1804.73,804.33 1806.16,803.937 1807.34,803.18C1808.62,802.364 1809.32,801.023 1809.32,799.103C1809.32,797.183 1808.62,795.842 1807.34,795.026C1806.16,794.269 1804.73,793.876 1803.04,793.876L1802.4,793.876C1801.83,793.876 1801.36,794.311 1801.36,794.847L1801.36,803.359ZM1803.45,795.828L1803.45,802.377C1804.5,802.325 1805.4,802.066 1806.15,801.583C1806.91,801.095 1807.22,800.251 1807.22,799.103C1807.22,797.955 1806.91,797.111 1806.15,796.623C1805.4,796.14 1804.5,795.881 1803.45,795.828Z" style="fill:white;"/>-->
            </g>
            <g transform="matrix(0.425577,0,0,0.442658,-1227.24,57.5923)">
                <path d="M1621.46,104.248L1743.65,104.248L1743.65,158.662L1687.69,158.662L1687.69,181.672L1742.72,181.672L1742.72,233.287L1687.69,233.287L1687.69,257.229L1745.83,257.229L1745.83,311.643L1621.46,311.643L1621.46,104.248Z" style="fill:url(#_Linear6);fill-rule:nonzero;"/>
                <path d="M1821.08,247.279C1825.64,248.73 1830.41,249.87 1835.38,250.7C1839.53,251.736 1844.24,252.565 1849.53,253.187C1854.81,253.809 1860.15,254.12 1865.54,254.12C1875.08,254.12 1879.85,250.596 1879.85,243.548C1879.85,240.853 1878.39,238.107 1875.49,235.308C1872.59,232.51 1868.91,229.4 1864.45,225.98C1860,222.56 1855.23,218.777 1850.15,214.631C1845.07,210.485 1840.3,205.717 1835.85,200.328C1831.39,194.938 1827.71,188.875 1824.81,182.138C1821.91,175.401 1820.46,167.679 1820.46,158.973C1820.46,149.231 1822.22,140.628 1825.74,133.165C1829.27,125.703 1834.14,119.484 1840.36,114.509C1846.58,109.534 1853.88,105.751 1862.28,103.16C1870.67,100.569 1879.64,99.273 1889.17,99.273C1894.15,99.273 1899.12,99.533 1904.1,100.051C1909.07,100.569 1913.53,101.035 1917.47,101.45C1922.03,102.072 1926.49,102.694 1930.84,103.316L1930.84,161.461C1929.18,161.253 1927.31,161.046 1925.24,160.839C1923.58,160.632 1921.72,160.424 1919.64,160.217C1917.57,160.01 1915.39,159.906 1913.12,159.906C1911.87,159.906 1910.32,159.958 1908.45,160.062C1906.59,160.165 1904.82,160.424 1903.16,160.839C1901.51,161.253 1900.06,161.979 1898.81,163.015C1897.57,164.052 1896.95,165.503 1896.95,167.369C1896.95,169.027 1898.35,171.1 1901.14,173.587C1903.94,176.075 1907.36,178.977 1911.4,182.294C1915.45,185.61 1919.9,189.445 1924.78,193.798C1929.65,198.151 1934.1,203.126 1938.14,208.723C1942.19,214.32 1945.61,220.642 1948.41,227.69C1951.2,234.738 1952.6,242.615 1952.6,251.321C1952.6,260.442 1951.15,268.993 1948.25,276.974C1945.35,284.954 1940.84,291.899 1934.73,297.807C1928.61,303.714 1920.79,308.378 1911.25,311.799C1901.71,315.219 1890.42,316.929 1877.36,316.929C1869.48,316.929 1862.17,316.566 1855.44,315.841C1848.7,315.115 1842.74,314.234 1837.56,313.198C1831.55,312.161 1826.05,310.918 1821.08,309.467L1821.08,247.279Z" style="fill:url(#_Linear7);fill-rule:nonzero;"/>
                <path d="M2056.15,158.662L2017.9,158.662L2017.9,104.248L2162.8,104.248L2162.8,158.662L2124.55,158.662L2124.55,311.643L2056.15,311.643L2056.15,158.662Z" style="fill:url(#_Linear8);fill-rule:nonzero;"/>
<!--                <path d="M1693.35,251.979L1745.83,251.979C1748.96,251.979 1751.49,254.33 1751.49,257.229L1751.49,311.643C1751.49,314.543 1748.96,316.893 1745.83,316.893L1621.46,316.893C1618.33,316.893 1615.79,314.543 1615.79,311.643L1615.79,104.248C1615.79,101.349 1618.33,98.998 1621.46,98.998L1743.65,98.998C1746.78,98.998 1749.32,101.349 1749.32,104.248L1749.32,158.662C1749.32,161.562 1746.78,163.912 1743.65,163.912L1693.35,163.912L1693.35,176.422L1742.72,176.422C1745.85,176.422 1748.38,178.772 1748.38,181.672L1748.38,233.287C1748.38,236.187 1745.85,238.537 1742.72,238.537L1693.35,238.537L1693.35,251.979ZM1737.99,153.412L1737.99,109.498L1627.12,109.498L1627.12,306.393L1740.17,306.393L1740.17,262.479L1687.69,262.479C1684.56,262.479 1682.02,260.129 1682.02,257.229L1682.02,233.287C1682.02,230.388 1684.56,228.037 1687.69,228.037L1737.06,228.037L1737.06,186.922L1687.69,186.922C1684.56,186.922 1682.02,184.571 1682.02,181.672L1682.02,158.662C1682.02,155.763 1684.56,153.412 1687.69,153.412L1737.99,153.412Z" style="fill:white;"/>-->
<!--                <path d="M1836.45,318.346C1830.22,317.271 1824.53,315.978 1819.38,314.475C1817.02,313.787 1815.42,311.759 1815.42,309.467L1815.42,247.279C1815.42,245.584 1816.3,243.992 1817.79,243.007C1819.28,242.021 1821.19,241.763 1822.92,242.314C1827.21,243.68 1831.7,244.752 1836.38,245.532C1836.54,245.559 1836.7,245.592 1836.86,245.631C1840.78,246.611 1845.24,247.39 1850.24,247.979C1855.29,248.573 1860.39,248.87 1865.54,248.87C1869.12,248.87 1871.78,248.534 1873.21,246.946C1873.97,246.108 1874.18,244.945 1874.18,243.548C1874.18,242 1873.08,240.555 1871.41,238.947C1868.63,236.269 1865.11,233.298 1860.84,230.025C1856.35,226.573 1851.53,222.755 1846.41,218.571C1841.06,214.209 1836.04,209.194 1831.35,203.522C1826.59,197.762 1822.65,191.285 1819.55,184.085C1816.4,176.78 1814.79,168.414 1814.79,158.973C1814.79,148.433 1816.74,139.133 1820.56,131.06C1824.43,122.845 1829.81,116.011 1836.66,110.534C1843.42,105.124 1851.36,100.997 1860.49,98.179C1869.44,95.415 1879,94.023 1889.17,94.023C1894.36,94.023 1899.54,94.293 1904.73,94.834C1909.71,95.352 1914.17,95.819 1918.11,96.233C1918.17,96.24 1918.23,96.247 1918.29,96.256C1922.87,96.879 1927.34,97.503 1931.7,98.127C1934.46,98.521 1936.5,100.725 1936.5,103.316L1936.5,161.461C1936.5,162.975 1935.8,164.416 1934.57,165.413C1933.34,166.41 1931.7,166.866 1930.08,166.664C1928.47,166.462 1926.65,166.26 1924.63,166.059C1924.59,166.054 1924.54,166.048 1924.49,166.042C1922.87,165.84 1921.06,165.638 1919.04,165.437C1917.16,165.249 1915.18,165.156 1913.12,165.156C1911.96,165.156 1910.52,165.206 1908.79,165.302C1907.33,165.384 1905.94,165.582 1904.64,165.908C1903.86,166.102 1903.18,166.435 1902.6,166.92C1902.48,167.019 1902.61,167.19 1902.61,167.369C1902.61,167.245 1902.56,166.977 1902.56,166.977C1902.56,166.977 1903.78,168.659 1905.06,169.797C1907.82,172.245 1911.18,175.099 1915.16,178.362C1919.25,181.722 1923.77,185.607 1928.7,190.018C1933.86,194.622 1938.58,199.882 1942.85,205.802C1947.13,211.727 1950.76,218.416 1953.72,225.876C1956.73,233.467 1958.27,241.946 1958.27,251.321C1958.27,261.039 1956.71,270.148 1953.62,278.651C1950.44,287.383 1945.5,294.978 1938.81,301.442C1932.16,307.869 1923.67,312.974 1913.29,316.695C1903.18,320.322 1891.21,322.179 1877.36,322.179C1869.25,322.179 1861.72,321.803 1854.78,321.056C1847.88,320.312 1841.77,319.407 1836.45,318.346ZM1916.73,106.656L1903.47,105.268C1898.7,104.772 1893.94,104.523 1889.17,104.523C1880.27,104.523 1871.9,105.723 1864.07,108.141C1856.4,110.506 1849.73,113.945 1844.06,118.484C1838.46,122.958 1834.1,128.561 1830.93,135.271C1827.69,142.123 1826.12,150.028 1826.12,158.973C1826.12,166.945 1827.41,174.022 1830.07,180.191C1832.77,186.465 1836.19,192.114 1840.34,197.133C1844.56,202.241 1849.08,206.762 1853.89,210.69C1858.92,214.798 1863.65,218.547 1868.06,221.936C1872.71,225.503 1876.55,228.75 1879.57,231.669C1883.71,235.662 1885.51,239.703 1885.51,243.548C1885.51,247.791 1884.2,251.136 1881.9,253.682C1878.75,257.173 1873.41,259.37 1865.54,259.37C1859.91,259.37 1854.34,259.045 1848.82,258.395C1843.35,257.752 1838.45,256.892 1834.14,255.826C1831.62,255.402 1829.16,254.901 1826.74,254.325L1826.74,305.537C1830.42,306.478 1834.38,307.309 1838.59,308.036L1838.75,308.066C1843.78,309.071 1849.56,309.922 1856.09,310.626C1862.63,311.33 1869.72,311.679 1877.36,311.679C1889.63,311.679 1900.25,310.116 1909.21,306.902C1917.9,303.783 1925.06,299.56 1930.64,294.171C1936.18,288.82 1940.26,282.526 1942.89,275.296C1945.6,267.838 1946.94,259.845 1946.94,251.321C1946.94,243.285 1945.68,236.01 1943.09,229.504C1940.46,222.869 1937.25,216.913 1933.44,211.644C1929.63,206.371 1925.44,201.68 1920.85,197.578C1916.04,193.283 1911.64,189.498 1907.65,186.225C1903.55,182.855 1900.07,179.905 1897.23,177.377C1892.87,173.503 1891.28,169.951 1891.28,167.369C1891.28,163.801 1892.65,161.093 1895.03,159.111C1896.93,157.523 1899.15,156.405 1901.69,155.77C1903.71,155.266 1905.85,154.947 1908.11,154.821C1910.11,154.71 1911.78,154.656 1913.12,154.656C1915.61,154.656 1917.99,154.771 1920.25,154.997C1922.04,155.177 1923.69,155.356 1925.18,155.536L1925.18,107.827L1923.39,107.574L1916.73,106.656Z" style="fill:white;"/>-->
<!--                <path d="M2050.48,163.912L2017.9,163.912C2014.77,163.912 2012.24,161.562 2012.24,158.662L2012.24,104.248C2012.24,101.349 2014.77,98.998 2017.9,98.998L2162.8,98.998C2165.92,98.998 2168.46,101.349 2168.46,104.248L2168.46,158.662C2168.46,161.562 2165.92,163.912 2162.8,163.912L2130.21,163.912L2130.21,311.643C2130.21,314.543 2127.68,316.893 2124.55,316.893L2056.15,316.893C2053.02,316.893 2050.48,314.543 2050.48,311.643L2050.48,163.912ZM2157.14,153.412L2157.14,109.498L2023.56,109.498L2023.56,153.412L2056.15,153.412C2059.27,153.412 2061.81,155.763 2061.81,158.662L2061.81,306.393L2118.89,306.393L2118.89,158.662C2118.89,155.763 2121.43,153.412 2124.55,153.412L2157.14,153.412Z" style="fill:white;"/>-->
            </g>
        </g>
    </g>
    <defs>
<!--        <linearGradient id="_Linear1" x1="0" y1="0" x2="1" y2="0" gradientUnits="userSpaceOnUse" gradientTransform="matrix(462.759,0,0,340.719,564.365,567.033)"><stop offset="0" style="stop-color:rgb(0,72,215);stop-opacity:1"/><stop offset="1" style="stop-color:rgb(0,48,158);stop-opacity:1"/></linearGradient>-->
<!--        <linearGradient id="_Linear2" x1="0" y1="0" x2="1" y2="0" gradientUnits="userSpaceOnUse" gradientTransform="matrix(157.361,0,0,38.3625,1665.17,803.675)"><stop offset="0" style="stop-color:rgb(0,106,255);stop-opacity:1"/><stop offset="1" style="stop-color:rgb(0,45,148);stop-opacity:1"/></linearGradient>-->
<!--        <linearGradient id="_Linear3" x1="0" y1="0" x2="1" y2="0" gradientUnits="userSpaceOnUse" gradientTransform="matrix(157.361,0,0,38.3625,1665.17,803.675)"><stop offset="0" style="stop-color:rgb(0,106,255);stop-opacity:1"/><stop offset="1" style="stop-color:rgb(0,45,148);stop-opacity:1"/></linearGradient>-->
<!--        <linearGradient id="_Linear4" x1="0" y1="0" x2="1" y2="0" gradientUnits="userSpaceOnUse" gradientTransform="matrix(157.361,0,0,38.3625,1665.17,803.675)"><stop offset="0" style="stop-color:rgb(0,106,255);stop-opacity:1"/><stop offset="1" style="stop-color:rgb(0,45,148);stop-opacity:1"/></linearGradient>-->
<!--        <linearGradient id="_Linear5" x1="0" y1="0" x2="1" y2="0" gradientUnits="userSpaceOnUse" gradientTransform="matrix(157.361,0,0,38.3625,1665.17,803.675)"><stop offset="0" style="stop-color:rgb(0,106,255);stop-opacity:1"/><stop offset="1" style="stop-color:rgb(0,45,148);stop-opacity:1"/></linearGradient>-->
<!--        <linearGradient id="_Linear6" x1="0" y1="0" x2="1" y2="0" gradientUnits="userSpaceOnUse" gradientTransform="matrix(541.341,0,0,217.656,1621.46,208.101)"><stop offset="0" style="stop-color:rgb(0,48,155);stop-opacity:1"/><stop offset="1" style="stop-color:rgb(0,35,117);stop-opacity:1"/></linearGradient>-->
<!--        <linearGradient id="_Linear7" x1="0" y1="0" x2="1" y2="0" gradientUnits="userSpaceOnUse" gradientTransform="matrix(541.341,0,0,217.656,1621.46,208.101)"><stop offset="0" style="stop-color:rgb(0,48,155);stop-opacity:1"/><stop offset="1" style="stop-color:rgb(0,35,117);stop-opacity:1"/></linearGradient>-->
<!--        <linearGradient id="_Linear8" x1="0" y1="0" x2="1" y2="0" gradientUnits="userSpaceOnUse" gradientTransform="matrix(541.341,0,0,217.656,1621.46,208.101)"><stop offset="0" style="stop-color:rgb(0,48,155);stop-opacity:1"/><stop offset="1" style="stop-color:rgb(0,35,117);stop-opacity:1"/></linearGradient>-->
      <linearGradient id="_Linear2" x1="0" y1="0" x2="1" y2="0" gradientUnits="userSpaceOnUse" gradientTransform="matrix(157.361,0,0,38.3625,1665.17,803.675)"><stop offset="0" style="stop-color:#74BBFF;stop-opacity:1"/><stop offset="1" style="stop-color:#6E85E8;stop-opacity:1"/></linearGradient>
      <linearGradient id="_Linear3" x1="0" y1="0" x2="1" y2="0" gradientUnits="userSpaceOnUse" gradientTransform="matrix(157.361,0,0,38.3625,1665.17,803.675)"><stop offset="0" style="stop-color:#74BBFF;stop-opacity:1"/><stop offset="1" style="stop-color:#6E85E8;stop-opacity:1"/></linearGradient>
      <linearGradient id="_Linear4" x1="0" y1="0" x2="1" y2="0" gradientUnits="userSpaceOnUse" gradientTransform="matrix(157.361,0,0,38.3625,1665.17,803.675)"><stop offset="0" style="stop-color:#74BBFF;stop-opacity:1"/><stop offset="1" style="stop-color:#6E85E8;stop-opacity:1"/></linearGradient>
      <linearGradient id="_Linear5" x1="0" y1="0" x2="1" y2="0" gradientUnits="userSpaceOnUse" gradientTransform="matrix(157.361,0,0,38.3625,1665.17,803.675)"><stop offset="0" style="stop-color:#74BBFF;stop-opacity:1"/><stop offset="1" style="stop-color:#6E85E8;stop-opacity:1"/></linearGradient>
      <linearGradient id="_Linear6" x1="0" y1="0" x2="1" y2="0" gradientUnits="userSpaceOnUse" gradientTransform="matrix(541.341,0,0,217.656,1621.46,208.101)"><stop offset="0" style="stop-color:#74BBFF;stop-opacity:1"/><stop offset="1" style="stop-color:#6E85E8;stop-opacity:1"/></linearGradient>
      <linearGradient id="_Linear7" x1="0" y1="0" x2="1" y2="0" gradientUnits="userSpaceOnUse" gradientTransform="matrix(541.341,0,0,217.656,1621.46,208.101)"><stop offset="0" style="stop-color:#74BBFF;stop-opacity:1"/><stop offset="1" style="stop-color:#6E85E8;stop-opacity:1"/></linearGradient>
      <linearGradient id="_Linear8" x1="0" y1="0" x2="1" y2="0" gradientUnits="userSpaceOnUse" gradientTransform="matrix(541.341,0,0,217.656,1621.46,208.101)"><stop offset="0" style="stop-color:#74BBFF;stop-opacity:1"/><stop offset="1" style="stop-color:#6E85E8;stop-opacity:1"/></linearGradient>
    </defs>
</svg>
