<?xml version="1.0" encoding="UTF-8" standalone="no"?>
<!DOCTYPE svg PUBLIC "-//W3C//DTD SVG 1.1//EN" "http://www.w3.org/Graphics/SVG/1.1/DTD/svg11.dtd">
<svg width="100%" height="100%" viewBox="0 0 1141 224" version="1.1" xmlns="http://www.w3.org/2000/svg" xmlns:xlink="http://www.w3.org/1999/xlink" xml:space="preserve" xmlns:serif="http://www.serif.com/" style="fill-rule:evenodd;clip-rule:evenodd;stroke-linejoin:round;stroke-miterlimit:2;">
    <g transform="matrix(1,0,0,1,-197.619,-583.086)">
        <g transform="matrix(1,0,0,1,-176.294,-358.7)">
            <path d="M768.778,941.786C777.19,941.786 780.772,948.615 776.773,957.027L684.808,1150.45C680.808,1158.86 670.732,1165.69 662.321,1165.69L635.965,1165.69C644.376,1165.69 654.452,1158.86 658.452,1150.45L750.417,957.027C754.416,948.615 750.834,941.786 742.422,941.786L768.778,941.786Z" style="fill:rgb(223,14,14);"/>
        </g>
        <g transform="matrix(1,0,-0.319354,0.671684,604.843,-23.5127)">
            <path d="M249.36,925.792C249.36,913.269 242.531,903.102 234.12,903.102L105.281,903.102C96.87,903.102 90.041,913.269 90.041,925.792L90.041,1213.76C90.041,1226.29 96.87,1236.45 105.281,1236.45L234.12,1236.45C242.531,1236.45 249.36,1226.29 249.36,1213.76L249.36,925.792Z" style="fill:white;"/>
            <path d="M249.36,925.792C249.36,913.269 242.531,903.102 234.12,903.102L105.281,903.102C96.87,903.102 90.041,913.269 90.041,925.792L90.041,1213.76C90.041,1226.29 96.87,1236.45 105.281,1236.45L234.12,1236.45C242.531,1236.45 249.36,1226.29 249.36,1213.76L249.36,925.792ZM236.073,920.967L110.987,920.967C106.541,920.967 103.328,926.844 103.328,933.463L103.328,1218.59L228.414,1218.59C232.86,1218.59 236.073,1212.71 236.073,1206.09L236.073,920.967Z" style="fill:rgb(249,169,6);"/>
        </g>
        <g transform="matrix(-1,0,0.319354,0.671684,152.96,-23.5127)">
            <path d="M249.36,925.792C249.36,913.269 242.531,903.102 234.12,903.102L105.281,903.102C96.87,903.102 90.041,913.269 90.041,925.792L90.041,1213.76C90.041,1226.29 96.87,1236.45 105.281,1236.45L234.12,1236.45C242.531,1236.45 249.36,1226.29 249.36,1213.76L249.36,925.792Z" style="fill:rgb(249,169,6);"/>
        </g>
        <g transform="matrix(1,0,0,1,-22.0497,-358.7)">
            <circle cx="481.721" cy="984.164" r="15.774" style="fill:rgb(249,169,6);"/>
        </g>
        <g transform="matrix(8.41804,0,0,7.94685,3198.25,-7189.37)">
            <g transform="matrix(36,0,0,36,-302.226,1004.2)">
                <path d="M0.19,-0.137L0.295,-0.408L0.33,-0.408L0.44,-0.138L0.538,-0.395L0.645,-0.395L0.461,0.008L0.412,0.008L0.321,-0.245L0.217,0.008L0.167,0.008L-0.014,-0.395L0.093,-0.395L0.19,-0.137Z" style="fill-rule:nonzero;"/>
            </g>
            <g transform="matrix(36,0,0,36,-278.466,1004.2)">
                <path d="M0.414,0L0.319,0L0.319,-0.036C0.291,-0.003 0.249,0.013 0.194,0.013C0.139,0.013 0.094,-0.008 0.062,-0.051C0.028,-0.094 0.012,-0.144 0.012,-0.201C0.012,-0.258 0.029,-0.307 0.063,-0.348C0.096,-0.388 0.139,-0.408 0.192,-0.408C0.248,-0.408 0.29,-0.391 0.319,-0.358L0.319,-0.395L0.414,-0.395L0.414,0ZM0.33,-0.198C0.33,-0.235 0.32,-0.265 0.299,-0.289C0.278,-0.312 0.252,-0.324 0.22,-0.324C0.187,-0.324 0.161,-0.313 0.141,-0.29C0.12,-0.267 0.11,-0.236 0.11,-0.198C0.11,-0.16 0.12,-0.129 0.141,-0.106C0.162,-0.083 0.188,-0.071 0.221,-0.071C0.254,-0.071 0.28,-0.082 0.3,-0.105C0.32,-0.128 0.33,-0.159 0.33,-0.198Z" style="fill-rule:nonzero;"/>
            </g>
            <g transform="matrix(36,0,0,36,-261.006,1004.2)">
                <rect x="0.048" y="-0.683" width="0.097" height="0.683" style="fill-rule:nonzero;"/>
            </g>
            <g transform="matrix(36,0,0,36,-253.014,1004.2)">
                <rect x="0.048" y="-0.683" width="0.097" height="0.683" style="fill-rule:nonzero;"/>
            </g>
            <g transform="matrix(36,0,0,36,-245.022,1004.2)">
                <path d="M0.115,-0.188C0.115,-0.15 0.123,-0.119 0.14,-0.094C0.157,-0.069 0.18,-0.057 0.209,-0.057C0.255,-0.057 0.284,-0.08 0.297,-0.125L0.389,-0.11C0.359,-0.028 0.299,0.013 0.209,0.013C0.149,0.013 0.101,-0.006 0.066,-0.045C0.03,-0.083 0.012,-0.133 0.012,-0.194C0.012,-0.259 0.029,-0.311 0.064,-0.35C0.098,-0.389 0.145,-0.408 0.204,-0.408C0.263,-0.408 0.309,-0.39 0.342,-0.353C0.375,-0.315 0.391,-0.265 0.391,-0.201L0.391,-0.188L0.115,-0.188ZM0.301,-0.242C0.301,-0.269 0.293,-0.293 0.276,-0.314C0.259,-0.335 0.237,-0.345 0.21,-0.345C0.183,-0.345 0.161,-0.334 0.144,-0.313C0.127,-0.291 0.118,-0.267 0.118,-0.242L0.301,-0.242Z" style="fill-rule:nonzero;"/>
            </g>
            <g transform="matrix(36,0,0,36,-229.434,1004.2)">
                <path d="M0.159,0L0.062,0L0.062,-0.308L0.015,-0.308L0.015,-0.387L0.062,-0.387L0.062,-0.529L0.159,-0.529L0.159,-0.387L0.236,-0.387L0.236,-0.308L0.159,-0.308L0.159,0Z" style="fill-rule:nonzero;"/>
            </g>
        </g>
    </g>
</svg>
