<?xml version="1.0" standalone="no"?>
<!DOCTYPE svg PUBLIC "-//W3C//DTD SVG 20010904//EN"
 "http://www.w3.org/TR/2001/REC-SVG-20010904/DTD/svg10.dtd">
<svg version="1.0" xmlns="http://www.w3.org/2000/svg"
 width="3040.000000pt" height="310.000000pt" viewBox="0 0 304.000000 31.000000"
 preserveAspectRatio="xMidYMid meet" >

<g transform="translate(0.000000,1931.000000) scale(0.100000,-0.100000)"
fill="#000000" stroke="none">
<path d="M7745 13619 c-276 -40 -538 -199 -696 -423 -40 -56 -1209 -1951
-1209 -1960 0 -2 37 9 83 26 270 99 463 139 702 145 157 4 193 2 284 -17 203
-41 321 -101 495 -250 61 -52 132 -112 157 -133 l46 -37 244 0 c136 0 251 -5
259 -10 12 -7 16 -41 20 -162 l5 -152 88 -38 c169 -73 461 -158 541 -158 l26
0 0 238 c0 202 2 241 16 261 l16 22 437 -3 c431 -4 437 -4 531 -30 107 -29
209 -72 276 -118 25 -17 49 -28 54 -25 4 3 20 25 35 50 l26 46 -687 1117
c-378 614 -711 1151 -741 1194 -212 304 -619 473 -1008 417z"/>
<path d="M13382 10940 c-101 -27 -187 -75 -253 -141 -103 -104 -144 -226 -137
-404 4 -94 9 -121 36 -188 56 -137 120 -218 287 -362 150 -129 190 -170 210
-217 30 -74 -8 -163 -82 -194 -48 -20 -205 -17 -325 6 -57 11 -109 20 -115 20
-10 0 -13 -57 -13 -249 0 -229 1 -250 18 -255 188 -55 531 -71 677 -32 281 76
425 287 412 606 -4 98 -9 127 -35 195 -63 160 -133 250 -358 457 -95 88 -114
114 -114 157 0 44 27 83 73 108 24 13 58 17 135 18 l102 0 0 232 0 233 -22 5
c-133 30 -391 32 -496 5z"/>
<path d="M11140 9930 l0 -980 520 0 520 0 0 215 0 215 -237 0 c-172 0 -245 4
-263 13 -25 12 -25 14 -28 163 -2 118 1 154 11 162 9 8 94 13 253 14 l239 3 3
203 2 202 -239 0 c-204 0 -242 2 -255 16 -23 23 -23 285 0 308 13 14 51 16
255 16 l239 0 0 215 0 215 -510 0 -510 0 0 -980z"/>
<path d="M14820 10695 l0 -215 158 0 c141 0 161 -2 175 -18 16 -17 17 -84 17
-765 l0 -747 265 0 265 0 0 748 c0 713 1 750 18 765 16 14 43 17 175 17 l157
0 0 215 0 215 -615 0 -615 0 0 -215z"/>
<path d="M2640 9880 l0 -980 520 0 520 0 0 215 0 215 -250 0 c-314 0 -290 -15
-290 178 0 122 2 141 18 155 16 15 49 17 255 17 l237 0 0 205 0 205 -238 0
c-219 0 -240 2 -255 18 -14 15 -17 42 -17 150 0 185 -22 172 280 172 l240 0 0
215 0 215 -510 0 -510 0 0 -980z"/>
<path d="M4410 10853 c0 -5 158 -446 352 -980 l351 -973 214 0 c117 0 213 2
213 4 0 2 158 440 350 972 193 532 350 971 350 976 0 5 -124 7 -276 6 l-276
-3 -154 -425 c-85 -234 -162 -435 -170 -447 -17 -27 -55 -30 -76 -5 -9 9 -86
211 -171 447 l-155 430 -276 3 c-152 1 -276 -1 -276 -5z"/>
<path d="M7000 9880 l0 -980 520 0 520 0 0 215 0 215 -249 0 c-270 0 -273 1
-287 55 -3 13 -4 78 -2 145 3 107 5 123 22 136 16 11 68 14 253 14 l233 0 0
205 0 205 -239 0 c-209 0 -240 2 -252 17 -10 11 -15 54 -17 144 -4 126 -3 129
22 154 l25 25 236 0 235 0 0 215 0 215 -510 0 -510 0 0 -980z"/>
<path d="M8900 9881 l0 -981 255 0 255 0 0 244 c0 209 2 247 16 260 21 21 57
20 76 -1 8 -10 74 -127 147 -260 l133 -243 300 0 300 0 -35 63 c-114 206 -287
547 -287 565 0 12 29 50 69 91 78 81 140 194 167 307 19 82 21 260 4 354 -39
214 -171 390 -365 486 -170 84 -195 87 -642 92 l-393 3 0 -980z m710 513 c142
-42 208 -137 198 -288 -5 -83 -26 -132 -76 -181 -68 -66 -242 -107 -297 -71
l-25 16 0 255 c0 217 2 256 16 269 21 21 113 21 184 0z"/>
</g>
</svg>
