<?xml version="1.0" encoding="UTF-8" standalone="no"?>
<!DOCTYPE svg PUBLIC "-//W3C//DTD SVG 1.1//EN" "http://www.w3.org/Graphics/SVG/1.1/DTD/svg11.dtd">
<svg width="100%" height="100%" viewBox="0 0 1536 1536" version="1.1" xmlns="http://www.w3.org/2000/svg" xmlns:xlink="http://www.w3.org/1999/xlink" xml:space="preserve" xmlns:serif="http://www.serif.com/" style="fill-rule:evenodd;clip-rule:evenodd;stroke-linejoin:round;stroke-miterlimit:2;">
    <rect id="画板1" x="0" y="0" width="1536" height="1536" style="fill:none;"/>
    <g id="画板11" serif:id="画板1">
        <g transform="matrix(1,0,0,1,-176.294,-358.7)">
            <path d="M768.778,941.786C777.19,941.786 780.772,948.615 776.773,957.027L684.808,1150.45C680.808,1158.86 670.732,1165.69 662.321,1165.69L635.965,1165.69C644.376,1165.69 654.452,1158.86 658.452,1150.45L750.417,957.027C754.416,948.615 750.834,941.786 742.422,941.786L768.778,941.786Z" style="fill:rgb(223,14,14);"/>
        </g>
        <g transform="matrix(1,0,-0.319354,0.671684,604.843,-23.5127)">
            <path d="M249.36,925.792C249.36,913.269 242.531,903.102 234.12,903.102L105.281,903.102C96.87,903.102 90.041,913.269 90.041,925.792L90.041,1213.76C90.041,1226.29 96.87,1236.45 105.281,1236.45L234.12,1236.45C242.531,1236.45 249.36,1226.29 249.36,1213.76L249.36,925.792Z" style="fill:white;"/>
            <path d="M249.36,925.792C249.36,913.269 242.531,903.102 234.12,903.102L105.281,903.102C96.87,903.102 90.041,913.269 90.041,925.792L90.041,1213.76C90.041,1226.29 96.87,1236.45 105.281,1236.45L234.12,1236.45C242.531,1236.45 249.36,1226.29 249.36,1213.76L249.36,925.792ZM236.073,920.967L110.987,920.967C106.541,920.967 103.328,926.844 103.328,933.463L103.328,1218.59L228.414,1218.59C232.86,1218.59 236.073,1212.71 236.073,1206.09L236.073,920.967Z" style="fill:rgb(249,169,6);"/>
        </g>
        <g transform="matrix(-1,0,0.319354,0.671684,152.96,-23.5127)">
            <path d="M249.36,925.792C249.36,913.269 242.531,903.102 234.12,903.102L105.281,903.102C96.87,903.102 90.041,913.269 90.041,925.792L90.041,1213.76C90.041,1226.29 96.87,1236.45 105.281,1236.45L234.12,1236.45C242.531,1236.45 249.36,1226.29 249.36,1213.76L249.36,925.792Z" style="fill:rgb(249,169,6);"/>
        </g>
        <g transform="matrix(1,0,0,1,-22.0497,-358.7)">
            <circle cx="481.721" cy="984.164" r="15.774" style="fill:rgb(249,169,6);"/>
        </g>
        <g transform="matrix(8.41804,0,0,7.94685,3198.25,-7189.37)">
            <text x="-302.226px" y="1004.2px" style="font-family:'LiGothicMed', 'Apple LiGothic';font-size:36px;">w<tspan x="-278.466px -261.006px -253.014px -245.022px -229.434px " y="1004.2px 1004.2px 1004.2px 1004.2px 1004.2px ">allet</tspan></text>
        </g>
    </g>
</svg>
